<mxfile host="app.diagrams.net" modified="2023-05-14T19:45:17.560Z" agent="Mozilla/5.0 (Windows NT 10.0; Win64; x64) AppleWebKit/537.36 (KHTML, like Gecko) Chrome/113.0.0.0 Safari/537.36 Edg/113.0.1774.35" etag="R8YS6ndBc0T1-gOurxpU" version="21.2.9" type="device">
  <diagram name="Страница 1" id="ypHTYZnfvZdiAB-rCAcW">
    <mxGraphModel dx="1172" dy="684" grid="1" gridSize="10" guides="1" tooltips="1" connect="1" arrows="1" fold="1" page="1" pageScale="1" pageWidth="827" pageHeight="1169" math="0" shadow="0">
      <root>
        <mxCell id="0" />
        <mxCell id="1" parent="0" />
        <mxCell id="5BOjPxcS3CkhSlAakWcD-1" value="" style="shape=internalStorage;whiteSpace=wrap;html=1;backgroundOutline=1;dx=50;dy=20;" parent="1" vertex="1">
          <mxGeometry x="80" y="40" width="160" height="150" as="geometry" />
        </mxCell>
        <mxCell id="5BOjPxcS3CkhSlAakWcD-3" value="Role" style="text;html=1;strokeColor=none;fillColor=none;align=center;verticalAlign=middle;whiteSpace=wrap;rounded=0;" parent="1" vertex="1">
          <mxGeometry x="149" y="35" width="60" height="30" as="geometry" />
        </mxCell>
        <mxCell id="5BOjPxcS3CkhSlAakWcD-4" value="&lt;div style=&quot;&quot;&gt;&lt;span style=&quot;background-color: initial;&quot;&gt;ID_Role&lt;/span&gt;&lt;/div&gt;" style="text;html=1;strokeColor=none;fillColor=none;align=left;verticalAlign=middle;whiteSpace=wrap;rounded=0;" parent="1" vertex="1">
          <mxGeometry x="140" y="70" width="60" height="30" as="geometry" />
        </mxCell>
        <mxCell id="5BOjPxcS3CkhSlAakWcD-5" value="ID_Person" style="text;html=1;strokeColor=none;fillColor=none;align=left;verticalAlign=middle;whiteSpace=wrap;rounded=0;" parent="1" vertex="1">
          <mxGeometry x="140" y="100" width="60" height="30" as="geometry" />
        </mxCell>
        <mxCell id="5BOjPxcS3CkhSlAakWcD-6" value="NameOfRole" style="text;html=1;strokeColor=none;fillColor=none;align=left;verticalAlign=middle;whiteSpace=wrap;rounded=0;" parent="1" vertex="1">
          <mxGeometry x="140" y="130" width="80" height="30" as="geometry" />
        </mxCell>
        <mxCell id="5BOjPxcS3CkhSlAakWcD-7" value="Experience" style="text;html=1;strokeColor=none;fillColor=none;align=left;verticalAlign=middle;whiteSpace=wrap;rounded=0;" parent="1" vertex="1">
          <mxGeometry x="140" y="160" width="70" height="30" as="geometry" />
        </mxCell>
        <mxCell id="5BOjPxcS3CkhSlAakWcD-8" value="PK" style="text;html=1;strokeColor=none;fillColor=none;align=left;verticalAlign=middle;whiteSpace=wrap;rounded=0;" parent="1" vertex="1">
          <mxGeometry x="90" y="75" width="20" height="20" as="geometry" />
        </mxCell>
        <mxCell id="5BOjPxcS3CkhSlAakWcD-9" value="" style="shape=internalStorage;whiteSpace=wrap;html=1;backgroundOutline=1;dx=50;dy=20;" parent="1" vertex="1">
          <mxGeometry x="80" y="240" width="170" height="380" as="geometry" />
        </mxCell>
        <mxCell id="5BOjPxcS3CkhSlAakWcD-10" value="Personal" style="text;html=1;strokeColor=none;fillColor=none;align=center;verticalAlign=middle;whiteSpace=wrap;rounded=0;" parent="1" vertex="1">
          <mxGeometry x="149" y="235" width="60" height="30" as="geometry" />
        </mxCell>
        <mxCell id="5BOjPxcS3CkhSlAakWcD-11" value="ID_Person" style="text;html=1;strokeColor=none;fillColor=none;align=left;verticalAlign=middle;whiteSpace=wrap;rounded=0;" parent="1" vertex="1">
          <mxGeometry x="140" y="280" width="60" height="30" as="geometry" />
        </mxCell>
        <mxCell id="5BOjPxcS3CkhSlAakWcD-12" value="ID_Role" style="text;html=1;strokeColor=none;fillColor=none;align=left;verticalAlign=middle;whiteSpace=wrap;rounded=0;" parent="1" vertex="1">
          <mxGeometry x="140" y="310" width="60" height="30" as="geometry" />
        </mxCell>
        <mxCell id="5BOjPxcS3CkhSlAakWcD-14" value="Name" style="text;html=1;strokeColor=none;fillColor=none;align=left;verticalAlign=middle;whiteSpace=wrap;rounded=0;" parent="1" vertex="1">
          <mxGeometry x="140" y="340" width="60" height="30" as="geometry" />
        </mxCell>
        <mxCell id="5BOjPxcS3CkhSlAakWcD-15" value="Surname" style="text;html=1;strokeColor=none;fillColor=none;align=left;verticalAlign=middle;whiteSpace=wrap;rounded=0;" parent="1" vertex="1">
          <mxGeometry x="140" y="370" width="60" height="30" as="geometry" />
        </mxCell>
        <mxCell id="5BOjPxcS3CkhSlAakWcD-16" value="Patronymic" style="text;html=1;strokeColor=none;fillColor=none;align=left;verticalAlign=middle;whiteSpace=wrap;rounded=0;" parent="1" vertex="1">
          <mxGeometry x="140" y="400" width="60" height="30" as="geometry" />
        </mxCell>
        <mxCell id="5BOjPxcS3CkhSlAakWcD-17" value="Gender" style="text;html=1;strokeColor=none;fillColor=none;align=left;verticalAlign=middle;whiteSpace=wrap;rounded=0;" parent="1" vertex="1">
          <mxGeometry x="140" y="430" width="60" height="30" as="geometry" />
        </mxCell>
        <mxCell id="5BOjPxcS3CkhSlAakWcD-18" value="Birthday" style="text;html=1;strokeColor=none;fillColor=none;align=left;verticalAlign=middle;whiteSpace=wrap;rounded=0;" parent="1" vertex="1">
          <mxGeometry x="140" y="460" width="60" height="30" as="geometry" />
        </mxCell>
        <mxCell id="5BOjPxcS3CkhSlAakWcD-19" value="Mobile" style="text;html=1;strokeColor=none;fillColor=none;align=left;verticalAlign=middle;whiteSpace=wrap;rounded=0;" parent="1" vertex="1">
          <mxGeometry x="140" y="490" width="60" height="30" as="geometry" />
        </mxCell>
        <mxCell id="5BOjPxcS3CkhSlAakWcD-20" value="On_holiday" style="text;html=1;strokeColor=none;fillColor=none;align=left;verticalAlign=middle;whiteSpace=wrap;rounded=0;" parent="1" vertex="1">
          <mxGeometry x="140" y="520" width="60" height="30" as="geometry" />
        </mxCell>
        <mxCell id="5BOjPxcS3CkhSlAakWcD-21" value="Salary" style="text;html=1;strokeColor=none;fillColor=none;align=left;verticalAlign=middle;whiteSpace=wrap;rounded=0;" parent="1" vertex="1">
          <mxGeometry x="140" y="550" width="60" height="30" as="geometry" />
        </mxCell>
        <mxCell id="5BOjPxcS3CkhSlAakWcD-22" value="Bankcard_number" style="text;html=1;strokeColor=none;fillColor=none;align=left;verticalAlign=middle;whiteSpace=wrap;rounded=0;" parent="1" vertex="1">
          <mxGeometry x="140" y="580" width="60" height="30" as="geometry" />
        </mxCell>
        <mxCell id="5BOjPxcS3CkhSlAakWcD-23" value="PK" style="text;html=1;strokeColor=none;fillColor=none;align=left;verticalAlign=middle;whiteSpace=wrap;rounded=0;" parent="1" vertex="1">
          <mxGeometry x="90" y="285" width="20" height="20" as="geometry" />
        </mxCell>
        <mxCell id="5BOjPxcS3CkhSlAakWcD-24" value="FK_1" style="text;html=1;strokeColor=none;fillColor=none;align=center;verticalAlign=middle;whiteSpace=wrap;rounded=0;" parent="1" vertex="1">
          <mxGeometry x="80" y="310" width="50" height="30" as="geometry" />
        </mxCell>
        <mxCell id="5BOjPxcS3CkhSlAakWcD-25" value="" style="shape=internalStorage;whiteSpace=wrap;html=1;backgroundOutline=1;dx=50;dy=20;" parent="1" vertex="1">
          <mxGeometry x="320" y="241" width="170" height="200" as="geometry" />
        </mxCell>
        <mxCell id="5BOjPxcS3CkhSlAakWcD-26" value="Spectacle" style="text;html=1;strokeColor=none;fillColor=none;align=center;verticalAlign=middle;whiteSpace=wrap;rounded=0;" parent="1" vertex="1">
          <mxGeometry x="387" y="235" width="60" height="30" as="geometry" />
        </mxCell>
        <mxCell id="5BOjPxcS3CkhSlAakWcD-27" value="ID_Spectacle" style="text;html=1;strokeColor=none;fillColor=none;align=left;verticalAlign=middle;whiteSpace=wrap;rounded=0;" parent="1" vertex="1">
          <mxGeometry x="380" y="276" width="60" height="30" as="geometry" />
        </mxCell>
        <mxCell id="5BOjPxcS3CkhSlAakWcD-28" value="NameOfSpectacle" style="text;html=1;strokeColor=none;fillColor=none;align=left;verticalAlign=middle;whiteSpace=wrap;rounded=0;" parent="1" vertex="1">
          <mxGeometry x="381" y="311" width="60" height="30" as="geometry" />
        </mxCell>
        <mxCell id="5BOjPxcS3CkhSlAakWcD-29" value="Description" style="text;html=1;strokeColor=none;fillColor=none;align=left;verticalAlign=middle;whiteSpace=wrap;rounded=0;" parent="1" vertex="1">
          <mxGeometry x="381" y="341" width="66" height="30" as="geometry" />
        </mxCell>
        <mxCell id="5BOjPxcS3CkhSlAakWcD-30" value="Price" style="text;html=1;strokeColor=none;fillColor=none;align=left;verticalAlign=middle;whiteSpace=wrap;rounded=0;" parent="1" vertex="1">
          <mxGeometry x="380" y="371" width="60" height="30" as="geometry" />
        </mxCell>
        <mxCell id="5BOjPxcS3CkhSlAakWcD-31" value="AvailableSeats" style="text;html=1;strokeColor=none;fillColor=none;align=left;verticalAlign=middle;whiteSpace=wrap;rounded=0;" parent="1" vertex="1">
          <mxGeometry x="381" y="401" width="60" height="30" as="geometry" />
        </mxCell>
        <mxCell id="5BOjPxcS3CkhSlAakWcD-32" value="PK" style="text;html=1;strokeColor=none;fillColor=none;align=center;verticalAlign=middle;whiteSpace=wrap;rounded=0;" parent="1" vertex="1">
          <mxGeometry x="320" y="273.5" width="40" height="35" as="geometry" />
        </mxCell>
        <mxCell id="5BOjPxcS3CkhSlAakWcD-33" value="" style="shape=internalStorage;whiteSpace=wrap;html=1;backgroundOutline=1;dx=50;dy=20;" parent="1" vertex="1">
          <mxGeometry x="320" y="470" width="160" height="100" as="geometry" />
        </mxCell>
        <mxCell id="5BOjPxcS3CkhSlAakWcD-34" value="Peromance" style="text;html=1;strokeColor=none;fillColor=none;align=center;verticalAlign=middle;whiteSpace=wrap;rounded=0;" parent="1" vertex="1">
          <mxGeometry x="389" y="464" width="60" height="30" as="geometry" />
        </mxCell>
        <mxCell id="5BOjPxcS3CkhSlAakWcD-35" value="ID_Person" style="text;html=1;strokeColor=none;fillColor=none;align=left;verticalAlign=middle;whiteSpace=wrap;rounded=0;" parent="1" vertex="1">
          <mxGeometry x="380" y="500" width="60" height="30" as="geometry" />
        </mxCell>
        <mxCell id="5BOjPxcS3CkhSlAakWcD-36" value="ID_Spectacle" style="text;html=1;strokeColor=none;fillColor=none;align=left;verticalAlign=middle;whiteSpace=wrap;rounded=0;" parent="1" vertex="1">
          <mxGeometry x="381" y="530" width="60" height="30" as="geometry" />
        </mxCell>
        <mxCell id="5BOjPxcS3CkhSlAakWcD-37" value="FK_1" style="text;html=1;strokeColor=none;fillColor=none;align=center;verticalAlign=middle;whiteSpace=wrap;rounded=0;" parent="1" vertex="1">
          <mxGeometry x="320" y="500" width="40" height="30" as="geometry" />
        </mxCell>
        <mxCell id="5BOjPxcS3CkhSlAakWcD-38" value="FK_2" style="text;html=1;strokeColor=none;fillColor=none;align=center;verticalAlign=middle;whiteSpace=wrap;rounded=0;" parent="1" vertex="1">
          <mxGeometry x="320" y="530" width="40" height="30" as="geometry" />
        </mxCell>
        <mxCell id="5BOjPxcS3CkhSlAakWcD-39" value="" style="shape=internalStorage;whiteSpace=wrap;html=1;backgroundOutline=1;dx=50;dy=20;" parent="1" vertex="1">
          <mxGeometry x="320" y="40" width="160" height="150" as="geometry" />
        </mxCell>
        <mxCell id="5BOjPxcS3CkhSlAakWcD-40" value="Shedule" style="text;html=1;strokeColor=none;fillColor=none;align=center;verticalAlign=middle;whiteSpace=wrap;rounded=0;" parent="1" vertex="1">
          <mxGeometry x="387" y="35" width="60" height="30" as="geometry" />
        </mxCell>
        <mxCell id="5BOjPxcS3CkhSlAakWcD-41" value="ID_Shedule" style="text;html=1;strokeColor=none;fillColor=none;align=left;verticalAlign=middle;whiteSpace=wrap;rounded=0;" parent="1" vertex="1">
          <mxGeometry x="381" y="70" width="60" height="30" as="geometry" />
        </mxCell>
        <mxCell id="5BOjPxcS3CkhSlAakWcD-42" value="ID_Spectacle" style="text;html=1;strokeColor=none;fillColor=none;align=left;verticalAlign=middle;whiteSpace=wrap;rounded=0;" parent="1" vertex="1">
          <mxGeometry x="380" y="100" width="60" height="30" as="geometry" />
        </mxCell>
        <mxCell id="5BOjPxcS3CkhSlAakWcD-43" value="Data_Time" style="text;html=1;strokeColor=none;fillColor=none;align=left;verticalAlign=middle;whiteSpace=wrap;rounded=0;" parent="1" vertex="1">
          <mxGeometry x="380" y="130" width="60" height="30" as="geometry" />
        </mxCell>
        <mxCell id="5BOjPxcS3CkhSlAakWcD-45" value="PK" style="text;html=1;strokeColor=none;fillColor=none;align=center;verticalAlign=middle;whiteSpace=wrap;rounded=0;" parent="1" vertex="1">
          <mxGeometry x="320" y="67.5" width="40" height="35" as="geometry" />
        </mxCell>
        <mxCell id="5BOjPxcS3CkhSlAakWcD-46" value="FK_1" style="text;html=1;strokeColor=none;fillColor=none;align=center;verticalAlign=middle;whiteSpace=wrap;rounded=0;" parent="1" vertex="1">
          <mxGeometry x="320" y="100" width="50" height="30" as="geometry" />
        </mxCell>
        <mxCell id="5BOjPxcS3CkhSlAakWcD-47" value="" style="shape=internalStorage;whiteSpace=wrap;html=1;backgroundOutline=1;dx=50;dy=20;" parent="1" vertex="1">
          <mxGeometry x="520" y="40" width="160" height="150" as="geometry" />
        </mxCell>
        <mxCell id="5BOjPxcS3CkhSlAakWcD-48" value="Ticket" style="text;html=1;strokeColor=none;fillColor=none;align=center;verticalAlign=middle;whiteSpace=wrap;rounded=0;" parent="1" vertex="1">
          <mxGeometry x="589" y="35" width="60" height="30" as="geometry" />
        </mxCell>
        <mxCell id="5BOjPxcS3CkhSlAakWcD-49" value="&lt;div style=&quot;&quot;&gt;ID_Ticket&lt;br&gt;&lt;/div&gt;" style="text;html=1;strokeColor=none;fillColor=none;align=left;verticalAlign=middle;whiteSpace=wrap;rounded=0;" parent="1" vertex="1">
          <mxGeometry x="580" y="70" width="60" height="30" as="geometry" />
        </mxCell>
        <mxCell id="5BOjPxcS3CkhSlAakWcD-50" value="ID_Shedule" style="text;html=1;strokeColor=none;fillColor=none;align=left;verticalAlign=middle;whiteSpace=wrap;rounded=0;" parent="1" vertex="1">
          <mxGeometry x="580" y="100" width="60" height="30" as="geometry" />
        </mxCell>
        <mxCell id="5BOjPxcS3CkhSlAakWcD-51" value="Price" style="text;html=1;strokeColor=none;fillColor=none;align=left;verticalAlign=middle;whiteSpace=wrap;rounded=0;" parent="1" vertex="1">
          <mxGeometry x="580" y="130" width="80" height="30" as="geometry" />
        </mxCell>
        <mxCell id="5BOjPxcS3CkhSlAakWcD-52" value="Count" style="text;html=1;strokeColor=none;fillColor=none;align=left;verticalAlign=middle;whiteSpace=wrap;rounded=0;" parent="1" vertex="1">
          <mxGeometry x="580" y="160" width="70" height="30" as="geometry" />
        </mxCell>
        <mxCell id="5BOjPxcS3CkhSlAakWcD-53" value="PK" style="text;html=1;strokeColor=none;fillColor=none;align=left;verticalAlign=middle;whiteSpace=wrap;rounded=0;" parent="1" vertex="1">
          <mxGeometry x="530" y="75" width="20" height="20" as="geometry" />
        </mxCell>
        <mxCell id="5BOjPxcS3CkhSlAakWcD-54" value="FK_1" style="text;html=1;strokeColor=none;fillColor=none;align=center;verticalAlign=middle;whiteSpace=wrap;rounded=0;" parent="1" vertex="1">
          <mxGeometry x="520" y="100" width="50" height="30" as="geometry" />
        </mxCell>
        <mxCell id="5BOjPxcS3CkhSlAakWcD-55" value="" style="shape=internalStorage;whiteSpace=wrap;html=1;backgroundOutline=1;dx=50;dy=20;" parent="1" vertex="1">
          <mxGeometry x="520" y="241" width="170" height="239" as="geometry" />
        </mxCell>
        <mxCell id="5BOjPxcS3CkhSlAakWcD-56" value="Client" style="text;html=1;strokeColor=none;fillColor=none;align=center;verticalAlign=middle;whiteSpace=wrap;rounded=0;" parent="1" vertex="1">
          <mxGeometry x="587" y="235" width="60" height="30" as="geometry" />
        </mxCell>
        <mxCell id="5BOjPxcS3CkhSlAakWcD-57" value="ID_Client" style="text;html=1;strokeColor=none;fillColor=none;align=left;verticalAlign=middle;whiteSpace=wrap;rounded=0;" parent="1" vertex="1">
          <mxGeometry x="580" y="276" width="60" height="30" as="geometry" />
        </mxCell>
        <mxCell id="5BOjPxcS3CkhSlAakWcD-58" value="First_Name" style="text;html=1;strokeColor=none;fillColor=none;align=left;verticalAlign=middle;whiteSpace=wrap;rounded=0;" parent="1" vertex="1">
          <mxGeometry x="580" y="311" width="60" height="30" as="geometry" />
        </mxCell>
        <mxCell id="5BOjPxcS3CkhSlAakWcD-59" value="Second_Name" style="text;html=1;strokeColor=none;fillColor=none;align=left;verticalAlign=middle;whiteSpace=wrap;rounded=0;" parent="1" vertex="1">
          <mxGeometry x="580" y="341" width="66" height="30" as="geometry" />
        </mxCell>
        <mxCell id="5BOjPxcS3CkhSlAakWcD-60" value="Email" style="text;html=1;strokeColor=none;fillColor=none;align=left;verticalAlign=middle;whiteSpace=wrap;rounded=0;" parent="1" vertex="1">
          <mxGeometry x="580" y="371" width="60" height="30" as="geometry" />
        </mxCell>
        <mxCell id="5BOjPxcS3CkhSlAakWcD-61" value="Login" style="text;html=1;strokeColor=none;fillColor=none;align=left;verticalAlign=middle;whiteSpace=wrap;rounded=0;" parent="1" vertex="1">
          <mxGeometry x="581" y="401" width="60" height="30" as="geometry" />
        </mxCell>
        <mxCell id="5BOjPxcS3CkhSlAakWcD-62" value="PK" style="text;html=1;strokeColor=none;fillColor=none;align=center;verticalAlign=middle;whiteSpace=wrap;rounded=0;" parent="1" vertex="1">
          <mxGeometry x="520" y="273.5" width="40" height="35" as="geometry" />
        </mxCell>
        <mxCell id="5BOjPxcS3CkhSlAakWcD-63" value="Password" style="text;html=1;strokeColor=none;fillColor=none;align=left;verticalAlign=middle;whiteSpace=wrap;rounded=0;" parent="1" vertex="1">
          <mxGeometry x="581" y="434" width="60" height="30" as="geometry" />
        </mxCell>
        <mxCell id="5BOjPxcS3CkhSlAakWcD-70" value="" style="shape=internalStorage;whiteSpace=wrap;html=1;backgroundOutline=1;dx=50;dy=20;" parent="1" vertex="1">
          <mxGeometry x="520" y="512" width="160" height="150" as="geometry" />
        </mxCell>
        <mxCell id="5BOjPxcS3CkhSlAakWcD-71" value="Basket" style="text;html=1;strokeColor=none;fillColor=none;align=center;verticalAlign=middle;whiteSpace=wrap;rounded=0;" parent="1" vertex="1">
          <mxGeometry x="587" y="507" width="60" height="30" as="geometry" />
        </mxCell>
        <mxCell id="5BOjPxcS3CkhSlAakWcD-72" value="ID_Basket" style="text;html=1;strokeColor=none;fillColor=none;align=left;verticalAlign=middle;whiteSpace=wrap;rounded=0;" parent="1" vertex="1">
          <mxGeometry x="581" y="542" width="60" height="30" as="geometry" />
        </mxCell>
        <mxCell id="5BOjPxcS3CkhSlAakWcD-73" value="ID_Client" style="text;html=1;strokeColor=none;fillColor=none;align=left;verticalAlign=middle;whiteSpace=wrap;rounded=0;" parent="1" vertex="1">
          <mxGeometry x="580" y="572" width="60" height="30" as="geometry" />
        </mxCell>
        <mxCell id="5BOjPxcS3CkhSlAakWcD-74" value="ID_Ticket" style="text;html=1;strokeColor=none;fillColor=none;align=left;verticalAlign=middle;whiteSpace=wrap;rounded=0;" parent="1" vertex="1">
          <mxGeometry x="580" y="602" width="60" height="30" as="geometry" />
        </mxCell>
        <mxCell id="5BOjPxcS3CkhSlAakWcD-75" value="PK" style="text;html=1;strokeColor=none;fillColor=none;align=center;verticalAlign=middle;whiteSpace=wrap;rounded=0;" parent="1" vertex="1">
          <mxGeometry x="520" y="539.5" width="40" height="35" as="geometry" />
        </mxCell>
        <mxCell id="5BOjPxcS3CkhSlAakWcD-76" value="FK_1" style="text;html=1;strokeColor=none;fillColor=none;align=center;verticalAlign=middle;whiteSpace=wrap;rounded=0;" parent="1" vertex="1">
          <mxGeometry x="520" y="572" width="50" height="30" as="geometry" />
        </mxCell>
        <mxCell id="5BOjPxcS3CkhSlAakWcD-78" value="FK_2" style="text;html=1;strokeColor=none;fillColor=none;align=center;verticalAlign=middle;whiteSpace=wrap;rounded=0;" parent="1" vertex="1">
          <mxGeometry x="520" y="602" width="50" height="30" as="geometry" />
        </mxCell>
        <mxCell id="5BOjPxcS3CkhSlAakWcD-82" value="" style="endArrow=none;html=1;rounded=0;entryX=0.996;entryY=0.39;entryDx=0;entryDy=0;entryPerimeter=0;exitX=0;exitY=0.872;exitDx=0;exitDy=0;exitPerimeter=0;" parent="1" source="5BOjPxcS3CkhSlAakWcD-75" edge="1">
          <mxGeometry width="50" height="50" relative="1" as="geometry">
            <mxPoint x="521" y="570" as="sourcePoint" />
            <mxPoint x="680" y="570" as="targetPoint" />
          </mxGeometry>
        </mxCell>
        <mxCell id="5BOjPxcS3CkhSlAakWcD-83" value="" style="endArrow=none;html=1;rounded=0;entryX=1.002;entryY=0.271;entryDx=0;entryDy=0;entryPerimeter=0;exitX=0;exitY=0.872;exitDx=0;exitDy=0;exitPerimeter=0;" parent="1" target="5BOjPxcS3CkhSlAakWcD-55" edge="1">
          <mxGeometry width="50" height="50" relative="1" as="geometry">
            <mxPoint x="520" y="305.76" as="sourcePoint" />
            <mxPoint x="680" y="305.76" as="targetPoint" />
          </mxGeometry>
        </mxCell>
        <mxCell id="5BOjPxcS3CkhSlAakWcD-84" value="" style="endArrow=none;html=1;rounded=0;entryX=0.996;entryY=0.39;entryDx=0;entryDy=0;entryPerimeter=0;exitX=0;exitY=0.872;exitDx=0;exitDy=0;exitPerimeter=0;" parent="1" edge="1">
          <mxGeometry width="50" height="50" relative="1" as="geometry">
            <mxPoint x="520" y="99.17" as="sourcePoint" />
            <mxPoint x="680" y="99.17" as="targetPoint" />
          </mxGeometry>
        </mxCell>
        <mxCell id="5BOjPxcS3CkhSlAakWcD-85" value="" style="endArrow=none;html=1;rounded=0;entryX=0.996;entryY=0.39;entryDx=0;entryDy=0;entryPerimeter=0;exitX=0;exitY=0.872;exitDx=0;exitDy=0;exitPerimeter=0;" parent="1" edge="1">
          <mxGeometry width="50" height="50" relative="1" as="geometry">
            <mxPoint x="320" y="99.66" as="sourcePoint" />
            <mxPoint x="480" y="99.66" as="targetPoint" />
          </mxGeometry>
        </mxCell>
        <mxCell id="5BOjPxcS3CkhSlAakWcD-86" value="" style="endArrow=none;html=1;rounded=0;entryX=0.996;entryY=0.39;entryDx=0;entryDy=0;entryPerimeter=0;exitX=0;exitY=0.872;exitDx=0;exitDy=0;exitPerimeter=0;" parent="1" edge="1">
          <mxGeometry width="50" height="50" relative="1" as="geometry">
            <mxPoint x="80" y="100" as="sourcePoint" />
            <mxPoint x="240" y="100" as="targetPoint" />
          </mxGeometry>
        </mxCell>
        <mxCell id="5BOjPxcS3CkhSlAakWcD-87" value="" style="endArrow=none;html=1;rounded=0;entryX=1.004;entryY=0.184;entryDx=0;entryDy=0;entryPerimeter=0;exitX=0;exitY=0.872;exitDx=0;exitDy=0;exitPerimeter=0;" parent="1" target="5BOjPxcS3CkhSlAakWcD-9" edge="1">
          <mxGeometry width="50" height="50" relative="1" as="geometry">
            <mxPoint x="80" y="310" as="sourcePoint" />
            <mxPoint x="240" y="310" as="targetPoint" />
          </mxGeometry>
        </mxCell>
        <mxCell id="5BOjPxcS3CkhSlAakWcD-88" value="&lt;br&gt;" style="endArrow=none;html=1;rounded=0;entryX=1.004;entryY=0.184;entryDx=0;entryDy=0;entryPerimeter=0;exitX=0;exitY=0.872;exitDx=0;exitDy=0;exitPerimeter=0;" parent="1" edge="1">
          <mxGeometry width="50" height="50" relative="1" as="geometry">
            <mxPoint x="319" y="306" as="sourcePoint" />
            <mxPoint x="490" y="306" as="targetPoint" />
          </mxGeometry>
        </mxCell>
        <mxCell id="fvD9Bi4LlfoHWtJEwKUF-2" value="" style="edgeStyle=orthogonalEdgeStyle;fontSize=12;html=1;endArrow=ERoneToMany;rounded=0;exitX=0;exitY=0.25;exitDx=0;exitDy=0;entryX=0;entryY=0.5;entryDx=0;entryDy=0;startArrow=ERone;startFill=0;" edge="1" parent="1" source="5BOjPxcS3CkhSlAakWcD-1" target="5BOjPxcS3CkhSlAakWcD-24">
          <mxGeometry width="100" height="100" relative="1" as="geometry">
            <mxPoint y="95" as="sourcePoint" />
            <mxPoint x="40" y="245" as="targetPoint" />
            <Array as="points">
              <mxPoint x="20" y="77" />
              <mxPoint x="20" y="325" />
            </Array>
          </mxGeometry>
        </mxCell>
        <mxCell id="fvD9Bi4LlfoHWtJEwKUF-3" value="" style="edgeStyle=orthogonalEdgeStyle;fontSize=12;html=1;endArrow=ERoneToMany;rounded=0;entryX=0;entryY=0.5;entryDx=0;entryDy=0;startArrow=ERone;startFill=0;" edge="1" parent="1" target="5BOjPxcS3CkhSlAakWcD-37">
          <mxGeometry width="100" height="100" relative="1" as="geometry">
            <mxPoint x="250" y="300" as="sourcePoint" />
            <mxPoint x="350" y="200" as="targetPoint" />
          </mxGeometry>
        </mxCell>
        <mxCell id="fvD9Bi4LlfoHWtJEwKUF-4" value="" style="edgeStyle=orthogonalEdgeStyle;fontSize=12;html=1;endArrow=ERoneToMany;rounded=0;entryX=0;entryY=0.5;entryDx=0;entryDy=0;exitX=1;exitY=0.25;exitDx=0;exitDy=0;startArrow=ERone;startFill=0;" edge="1" parent="1" source="5BOjPxcS3CkhSlAakWcD-39" target="5BOjPxcS3CkhSlAakWcD-54">
          <mxGeometry width="100" height="100" relative="1" as="geometry">
            <mxPoint x="340" y="250" as="sourcePoint" />
            <mxPoint x="440" y="150" as="targetPoint" />
          </mxGeometry>
        </mxCell>
        <mxCell id="fvD9Bi4LlfoHWtJEwKUF-5" value="" style="edgeStyle=orthogonalEdgeStyle;fontSize=12;html=1;endArrow=ERoneToMany;rounded=0;exitX=0;exitY=0.5;exitDx=0;exitDy=0;entryX=0;entryY=0.5;entryDx=0;entryDy=0;startArrow=ERone;startFill=0;jumpStyle=arc;" edge="1" parent="1" source="5BOjPxcS3CkhSlAakWcD-32" target="5BOjPxcS3CkhSlAakWcD-46">
          <mxGeometry width="100" height="100" relative="1" as="geometry">
            <mxPoint x="370" y="320" as="sourcePoint" />
            <mxPoint x="470" y="220" as="targetPoint" />
            <Array as="points">
              <mxPoint x="290" y="291" />
              <mxPoint x="290" y="115" />
            </Array>
          </mxGeometry>
        </mxCell>
        <mxCell id="fvD9Bi4LlfoHWtJEwKUF-6" value="" style="edgeStyle=orthogonalEdgeStyle;fontSize=12;html=1;endArrow=ERoneToMany;rounded=0;entryX=1;entryY=0.5;entryDx=0;entryDy=0;startArrow=ERone;startFill=0;" edge="1" parent="1" target="5BOjPxcS3CkhSlAakWcD-70">
          <mxGeometry width="100" height="100" relative="1" as="geometry">
            <mxPoint x="690" y="293" as="sourcePoint" />
            <mxPoint x="480" y="290" as="targetPoint" />
            <Array as="points">
              <mxPoint x="770" y="293" />
              <mxPoint x="770" y="587" />
            </Array>
          </mxGeometry>
        </mxCell>
        <mxCell id="fvD9Bi4LlfoHWtJEwKUF-7" value="" style="edgeStyle=orthogonalEdgeStyle;fontSize=12;html=1;endArrow=ERoneToMany;rounded=0;entryX=0;entryY=0.75;entryDx=0;entryDy=0;exitX=0;exitY=0.25;exitDx=0;exitDy=0;startArrow=baseDash;startFill=0;jumpStyle=arc;" edge="1" parent="1" source="5BOjPxcS3CkhSlAakWcD-45" target="5BOjPxcS3CkhSlAakWcD-38">
          <mxGeometry width="100" height="100" relative="1" as="geometry">
            <mxPoint x="410" y="450" as="sourcePoint" />
            <mxPoint x="510" y="350" as="targetPoint" />
            <Array as="points">
              <mxPoint x="300" y="76" />
              <mxPoint x="300" y="553" />
            </Array>
          </mxGeometry>
        </mxCell>
        <mxCell id="fvD9Bi4LlfoHWtJEwKUF-9" value="" style="edgeStyle=entityRelationEdgeStyle;fontSize=12;html=1;endArrow=ERoneToMany;rounded=0;exitX=1;exitY=0.25;exitDx=0;exitDy=0;entryX=1;entryY=0.75;entryDx=0;entryDy=0;startArrow=ERone;startFill=0;jumpStyle=arc;" edge="1" parent="1" source="5BOjPxcS3CkhSlAakWcD-47" target="5BOjPxcS3CkhSlAakWcD-70">
          <mxGeometry width="100" height="100" relative="1" as="geometry">
            <mxPoint x="540" y="420" as="sourcePoint" />
            <mxPoint x="640" y="320" as="targetPoint" />
          </mxGeometry>
        </mxCell>
      </root>
    </mxGraphModel>
  </diagram>
</mxfile>
